<mxfile host="app.diagrams.net" agent="Mozilla/5.0 (Windows NT 10.0; Win64; x64) AppleWebKit/537.36 (KHTML, like Gecko) Chrome/131.0.0.0 Safari/537.36" version="25.0.3">
  <diagram name="Page-1" id="0lR3Nfx8i8AdLJQTZynT">
    <mxGraphModel dx="3115" dy="1050" grid="1" gridSize="10" guides="1" tooltips="1" connect="1" arrows="1" fold="1" page="1" pageScale="1" pageWidth="827" pageHeight="1169" math="0" shadow="0">
      <root>
        <mxCell id="0" />
        <mxCell id="1" parent="0" />
        <mxCell id="4D9kTlraaMB5eFjH1Jv5-20" value="" style="edgeStyle=orthogonalEdgeStyle;rounded=0;orthogonalLoop=1;jettySize=auto;html=1;" edge="1" parent="1" source="4D9kTlraaMB5eFjH1Jv5-1" target="4D9kTlraaMB5eFjH1Jv5-2">
          <mxGeometry relative="1" as="geometry" />
        </mxCell>
        <mxCell id="4D9kTlraaMB5eFjH1Jv5-1" value="AC UI&amp;nbsp;" style="rounded=0;whiteSpace=wrap;html=1;fillColor=#d5e8d4;strokeColor=#82b366;" vertex="1" parent="1">
          <mxGeometry x="540" y="190" width="120" height="60" as="geometry" />
        </mxCell>
        <mxCell id="4D9kTlraaMB5eFjH1Jv5-27" value="" style="edgeStyle=orthogonalEdgeStyle;rounded=0;orthogonalLoop=1;jettySize=auto;html=1;" edge="1" parent="1" source="4D9kTlraaMB5eFjH1Jv5-2" target="4D9kTlraaMB5eFjH1Jv5-9">
          <mxGeometry relative="1" as="geometry" />
        </mxCell>
        <mxCell id="4D9kTlraaMB5eFjH1Jv5-30" value="" style="edgeStyle=orthogonalEdgeStyle;rounded=0;orthogonalLoop=1;jettySize=auto;html=1;" edge="1" parent="1" source="4D9kTlraaMB5eFjH1Jv5-2" target="4D9kTlraaMB5eFjH1Jv5-29">
          <mxGeometry relative="1" as="geometry" />
        </mxCell>
        <mxCell id="4D9kTlraaMB5eFjH1Jv5-2" value="MRRequestHandler" style="rounded=1;whiteSpace=wrap;html=1;fillColor=#f8cecc;strokeColor=#b85450;" vertex="1" parent="1">
          <mxGeometry x="505" y="355" width="190" height="70" as="geometry" />
        </mxCell>
        <mxCell id="4D9kTlraaMB5eFjH1Jv5-3" value="" style="rounded=0;whiteSpace=wrap;html=1;fillColor=#dae8fc;strokeColor=#6c8ebf;" vertex="1" parent="1">
          <mxGeometry x="50" y="220" width="240" height="340" as="geometry" />
        </mxCell>
        <mxCell id="4D9kTlraaMB5eFjH1Jv5-4" value="MRCreationRequestedEvent" style="rounded=1;whiteSpace=wrap;html=1;fillColor=#f8cecc;strokeColor=#b85450;" vertex="1" parent="1">
          <mxGeometry x="60" y="250" width="160" height="20" as="geometry" />
        </mxCell>
        <mxCell id="4D9kTlraaMB5eFjH1Jv5-5" value="MRsDeletionRequestedEvent" style="rounded=1;whiteSpace=wrap;html=1;fillColor=#f8cecc;strokeColor=#b85450;" vertex="1" parent="1">
          <mxGeometry x="60" y="290" width="170" height="20" as="geometry" />
        </mxCell>
        <mxCell id="4D9kTlraaMB5eFjH1Jv5-6" value="MRSavingRequestedEvent" style="rounded=1;whiteSpace=wrap;html=1;fillColor=#f8cecc;strokeColor=#b85450;" vertex="1" parent="1">
          <mxGeometry x="60" y="330" width="150" height="20" as="geometry" />
        </mxCell>
        <mxCell id="4D9kTlraaMB5eFjH1Jv5-8" value="MOsAttachmentToMRRequestedEvent" style="rounded=1;whiteSpace=wrap;html=1;fillColor=#f8cecc;strokeColor=#b85450;" vertex="1" parent="1">
          <mxGeometry x="55" y="360" width="210" height="20" as="geometry" />
        </mxCell>
        <mxCell id="4D9kTlraaMB5eFjH1Jv5-19" value="" style="edgeStyle=orthogonalEdgeStyle;rounded=0;orthogonalLoop=1;jettySize=auto;html=1;entryX=1;entryY=0.5;entryDx=0;entryDy=0;" edge="1" parent="1" source="4D9kTlraaMB5eFjH1Jv5-9" target="4D9kTlraaMB5eFjH1Jv5-3">
          <mxGeometry relative="1" as="geometry">
            <mxPoint x="310" y="390" as="targetPoint" />
            <Array as="points" />
          </mxGeometry>
        </mxCell>
        <mxCell id="4D9kTlraaMB5eFjH1Jv5-9" value="Handle Event&lt;div&gt;Register&amp;nbsp;&lt;/div&gt;&lt;div&gt;user event&amp;nbsp;&amp;nbsp;&lt;/div&gt;" style="rhombus;whiteSpace=wrap;html=1;fillColor=#dae8fc;strokeColor=#6c8ebf;" vertex="1" parent="1">
          <mxGeometry x="330" y="350" width="140" height="80" as="geometry" />
        </mxCell>
        <mxCell id="4D9kTlraaMB5eFjH1Jv5-13" value="MOsRemovalFromMRRequestedEvent" style="rounded=0;whiteSpace=wrap;html=1;fillColor=#f8cecc;strokeColor=#b85450;" vertex="1" parent="1">
          <mxGeometry x="55" y="390" width="220" height="20" as="geometry" />
        </mxCell>
        <mxCell id="4D9kTlraaMB5eFjH1Jv5-14" value="MRListRequestedEvent" style="rounded=0;whiteSpace=wrap;html=1;fillColor=#f8cecc;strokeColor=#b85450;" vertex="1" parent="1">
          <mxGeometry x="55" y="430" width="220" height="20" as="geometry" />
        </mxCell>
        <mxCell id="4D9kTlraaMB5eFjH1Jv5-16" value="MRsForMOsListRequestedEvent" style="rounded=0;whiteSpace=wrap;html=1;fillColor=#f8cecc;strokeColor=#b85450;" vertex="1" parent="1">
          <mxGeometry x="55" y="490" width="220" height="20" as="geometry" />
        </mxCell>
        <mxCell id="4D9kTlraaMB5eFjH1Jv5-17" value="MRListRequestedEvent" style="rounded=0;whiteSpace=wrap;html=1;fillColor=#f8cecc;strokeColor=#b85450;" vertex="1" parent="1">
          <mxGeometry x="55" y="460" width="220" height="20" as="geometry" />
        </mxCell>
        <mxCell id="4D9kTlraaMB5eFjH1Jv5-18" value="MOsAttachedToMRListRequestedEvent" style="rounded=0;whiteSpace=wrap;html=1;fillColor=#f8cecc;strokeColor=#b85450;" vertex="1" parent="1">
          <mxGeometry x="55" y="530" width="220" height="20" as="geometry" />
        </mxCell>
        <mxCell id="4D9kTlraaMB5eFjH1Jv5-26" value="Event&amp;nbsp;" style="rounded=0;whiteSpace=wrap;html=1;fillColor=#fff2cc;strokeColor=#d6b656;" vertex="1" parent="1">
          <mxGeometry x="100" y="180" width="120" height="60" as="geometry" />
        </mxCell>
        <mxCell id="4D9kTlraaMB5eFjH1Jv5-48" value="" style="edgeStyle=orthogonalEdgeStyle;rounded=0;orthogonalLoop=1;jettySize=auto;html=1;" edge="1" parent="1" source="4D9kTlraaMB5eFjH1Jv5-29" target="4D9kTlraaMB5eFjH1Jv5-33">
          <mxGeometry relative="1" as="geometry">
            <Array as="points">
              <mxPoint x="600" y="610" />
              <mxPoint x="600" y="610" />
            </Array>
          </mxGeometry>
        </mxCell>
        <mxCell id="4D9kTlraaMB5eFjH1Jv5-29" value="myTaskMgr.runTask( type of event , true );&amp;nbsp;" style="rounded=0;whiteSpace=wrap;html=1;fillColor=#dae8fc;strokeColor=#6c8ebf;" vertex="1" parent="1">
          <mxGeometry x="540" y="470" width="120" height="60" as="geometry" />
        </mxCell>
        <mxCell id="4D9kTlraaMB5eFjH1Jv5-33" value="" style="rounded=0;whiteSpace=wrap;html=1;fillColor=#dae8fc;strokeColor=#6c8ebf;" vertex="1" parent="1">
          <mxGeometry x="55" y="640" width="1545" height="80" as="geometry" />
        </mxCell>
        <mxCell id="4D9kTlraaMB5eFjH1Jv5-34" value="MRCreationTask" style="rounded=0;whiteSpace=wrap;html=1;fillColor=#f8cecc;strokeColor=#b85450;" vertex="1" parent="1">
          <mxGeometry x="60" y="650" width="100" height="40" as="geometry" />
        </mxCell>
        <mxCell id="4D9kTlraaMB5eFjH1Jv5-35" value="MRSavingTask" style="rounded=0;whiteSpace=wrap;html=1;fillColor=#f8cecc;strokeColor=#b85450;" vertex="1" parent="1">
          <mxGeometry x="165" y="650" width="100" height="40" as="geometry" />
        </mxCell>
        <mxCell id="4D9kTlraaMB5eFjH1Jv5-36" value="MRsDeletionTask" style="rounded=0;whiteSpace=wrap;html=1;fillColor=#f8cecc;strokeColor=#b85450;" vertex="1" parent="1">
          <mxGeometry x="275" y="650" width="100" height="40" as="geometry" />
        </mxCell>
        <mxCell id="4D9kTlraaMB5eFjH1Jv5-37" value="MRsListingTask" style="rounded=0;whiteSpace=wrap;html=1;fillColor=#f8cecc;strokeColor=#b85450;" vertex="1" parent="1">
          <mxGeometry x="380" y="650" width="100" height="40" as="geometry" />
        </mxCell>
        <mxCell id="4D9kTlraaMB5eFjH1Jv5-38" value="MOsAttachmentToMRTask" style="rounded=0;whiteSpace=wrap;html=1;fillColor=#f8cecc;strokeColor=#b85450;" vertex="1" parent="1">
          <mxGeometry x="680" y="650" width="165" height="40" as="geometry" />
        </mxCell>
        <mxCell id="4D9kTlraaMB5eFjH1Jv5-40" value="MOsAttachedtoMRListingTask" style="rounded=0;whiteSpace=wrap;html=1;fillColor=#f8cecc;strokeColor=#b85450;" vertex="1" parent="1">
          <mxGeometry x="505" y="650" width="165" height="40" as="geometry" />
        </mxCell>
        <mxCell id="4D9kTlraaMB5eFjH1Jv5-41" value="MOsAttachmentToMRTask" style="rounded=0;whiteSpace=wrap;html=1;fillColor=#f8cecc;strokeColor=#b85450;" vertex="1" parent="1">
          <mxGeometry x="850" y="650" width="165" height="40" as="geometry" />
        </mxCell>
        <mxCell id="4D9kTlraaMB5eFjH1Jv5-42" value="MOsRemovalFromMRTask" style="rounded=0;whiteSpace=wrap;html=1;fillColor=#f8cecc;strokeColor=#b85450;" vertex="1" parent="1">
          <mxGeometry x="1020" y="650" width="165" height="40" as="geometry" />
        </mxCell>
        <mxCell id="4D9kTlraaMB5eFjH1Jv5-45" value="MOsRemovalFromMRTask" style="rounded=0;whiteSpace=wrap;html=1;fillColor=#f8cecc;strokeColor=#b85450;" vertex="1" parent="1">
          <mxGeometry x="1190" y="650" width="175" height="40" as="geometry" />
        </mxCell>
        <mxCell id="4D9kTlraaMB5eFjH1Jv5-46" value="MRsForMOsListingTask" style="rounded=0;whiteSpace=wrap;html=1;fillColor=#f8cecc;strokeColor=#b85450;" vertex="1" parent="1">
          <mxGeometry x="1370" y="650" width="175" height="40" as="geometry" />
        </mxCell>
        <mxCell id="4D9kTlraaMB5eFjH1Jv5-47" value="" style="endArrow=none;dashed=1;html=1;rounded=0;" edge="1" parent="1">
          <mxGeometry width="50" height="50" relative="1" as="geometry">
            <mxPoint x="1545" y="669.5" as="sourcePoint" />
            <mxPoint x="1605" y="669.5" as="targetPoint" />
          </mxGeometry>
        </mxCell>
        <mxCell id="4D9kTlraaMB5eFjH1Jv5-52" value="" style="endArrow=classic;html=1;rounded=0;" edge="1" parent="1" target="4D9kTlraaMB5eFjH1Jv5-49">
          <mxGeometry width="50" height="50" relative="1" as="geometry">
            <mxPoint x="600" y="723" as="sourcePoint" />
            <mxPoint x="540" y="800" as="targetPoint" />
            <Array as="points" />
          </mxGeometry>
        </mxCell>
        <mxCell id="4D9kTlraaMB5eFjH1Jv5-55" value="" style="edgeStyle=orthogonalEdgeStyle;rounded=0;orthogonalLoop=1;jettySize=auto;html=1;" edge="1" parent="1" source="4D9kTlraaMB5eFjH1Jv5-49" target="4D9kTlraaMB5eFjH1Jv5-53">
          <mxGeometry relative="1" as="geometry" />
        </mxCell>
        <mxCell id="4D9kTlraaMB5eFjH1Jv5-57" value="" style="edgeStyle=orthogonalEdgeStyle;rounded=0;orthogonalLoop=1;jettySize=auto;html=1;" edge="1" parent="1" source="4D9kTlraaMB5eFjH1Jv5-49" target="4D9kTlraaMB5eFjH1Jv5-56">
          <mxGeometry relative="1" as="geometry" />
        </mxCell>
        <mxCell id="4D9kTlraaMB5eFjH1Jv5-49" value="runTask()" style="rounded=1;whiteSpace=wrap;html=1;fillColor=#dae8fc;strokeColor=#6c8ebf;" vertex="1" parent="1">
          <mxGeometry x="540" y="800" width="120" height="60" as="geometry" />
        </mxCell>
        <mxCell id="4D9kTlraaMB5eFjH1Jv5-53" value="EJB&amp;nbsp;&lt;div&gt;MaintenanceRegionAdmin&lt;/div&gt;" style="rounded=1;whiteSpace=wrap;html=1;fillColor=#f8cecc;strokeColor=#b85450;" vertex="1" parent="1">
          <mxGeometry x="510" y="920" width="180" height="60" as="geometry" />
        </mxCell>
        <mxCell id="4D9kTlraaMB5eFjH1Jv5-59" value="" style="edgeStyle=orthogonalEdgeStyle;rounded=0;orthogonalLoop=1;jettySize=auto;html=1;" edge="1" parent="1" source="4D9kTlraaMB5eFjH1Jv5-56" target="4D9kTlraaMB5eFjH1Jv5-58">
          <mxGeometry relative="1" as="geometry" />
        </mxCell>
        <mxCell id="4D9kTlraaMB5eFjH1Jv5-56" value="&amp;nbsp;fire( event )" style="rounded=0;whiteSpace=wrap;html=1;fillColor=#dae8fc;strokeColor=#6c8ebf;" vertex="1" parent="1">
          <mxGeometry x="750" y="800" width="120" height="60" as="geometry" />
        </mxCell>
        <mxCell id="4D9kTlraaMB5eFjH1Jv5-64" value="" style="edgeStyle=orthogonalEdgeStyle;rounded=0;orthogonalLoop=1;jettySize=auto;html=1;" edge="1" parent="1" source="4D9kTlraaMB5eFjH1Jv5-58" target="4D9kTlraaMB5eFjH1Jv5-63">
          <mxGeometry relative="1" as="geometry" />
        </mxCell>
        <mxCell id="4D9kTlraaMB5eFjH1Jv5-58" value="EventManagerImpl&lt;div&gt;fire( final EventListener sender, final Event event )&lt;/div&gt;" style="rounded=0;whiteSpace=wrap;html=1;fillColor=#f8cecc;strokeColor=#b85450;" vertex="1" parent="1">
          <mxGeometry x="992.5" y="785" width="220" height="90" as="geometry" />
        </mxCell>
        <mxCell id="4D9kTlraaMB5eFjH1Jv5-60" value="&lt;div style=&quot;&quot;&gt;handleEvent( Event event ){&lt;/div&gt;&lt;div style=&quot;&quot;&gt;&lt;br&gt;&lt;/div&gt;&lt;div style=&quot;&quot;&gt;populate( e.getMaintenanceRegions()}&amp;nbsp;&lt;/div&gt;" style="rounded=0;whiteSpace=wrap;html=1;align=center;fillColor=#dae8fc;strokeColor=#6c8ebf;" vertex="1" parent="1">
          <mxGeometry x="1145" y="150" width="220" height="50" as="geometry" />
        </mxCell>
        <mxCell id="4D9kTlraaMB5eFjH1Jv5-62" value="" style="edgeStyle=orthogonalEdgeStyle;rounded=0;orthogonalLoop=1;jettySize=auto;html=1;" edge="1" parent="1" source="4D9kTlraaMB5eFjH1Jv5-61" target="4D9kTlraaMB5eFjH1Jv5-60">
          <mxGeometry relative="1" as="geometry" />
        </mxCell>
        <mxCell id="4D9kTlraaMB5eFjH1Jv5-72" style="edgeStyle=orthogonalEdgeStyle;rounded=0;orthogonalLoop=1;jettySize=auto;html=1;exitX=0.045;exitY=-0.009;exitDx=0;exitDy=0;exitPerimeter=0;" edge="1" parent="1" source="4D9kTlraaMB5eFjH1Jv5-61">
          <mxGeometry relative="1" as="geometry">
            <mxPoint x="643" y="250" as="targetPoint" />
            <mxPoint x="1170" y="318.75" as="sourcePoint" />
            <Array as="points">
              <mxPoint x="1169" y="306" />
              <mxPoint x="644" y="306" />
            </Array>
          </mxGeometry>
        </mxCell>
        <mxCell id="4D9kTlraaMB5eFjH1Jv5-61" value="MRsController" style="rounded=0;whiteSpace=wrap;html=1;align=center;fillColor=#f8cecc;strokeColor=#b85450;" vertex="1" parent="1">
          <mxGeometry x="1160" y="350" width="192.5" height="75" as="geometry" />
        </mxCell>
        <mxCell id="4D9kTlraaMB5eFjH1Jv5-65" value="" style="edgeStyle=orthogonalEdgeStyle;rounded=0;orthogonalLoop=1;jettySize=auto;html=1;entryX=1;entryY=0.5;entryDx=0;entryDy=0;" edge="1" parent="1" target="4D9kTlraaMB5eFjH1Jv5-61">
          <mxGeometry relative="1" as="geometry">
            <mxPoint x="1620" y="820" as="sourcePoint" />
            <mxPoint x="1447.25" y="390" as="targetPoint" />
            <Array as="points">
              <mxPoint x="1641" y="820" />
              <mxPoint x="1641" y="750" />
              <mxPoint x="1643" y="750" />
              <mxPoint x="1643" y="388" />
            </Array>
          </mxGeometry>
        </mxCell>
        <mxCell id="4D9kTlraaMB5eFjH1Jv5-63" value="istener.handleEvent( event )" style="rounded=0;whiteSpace=wrap;html=1;fillColor=#dae8fc;strokeColor=#6c8ebf;" vertex="1" parent="1">
          <mxGeometry x="1270" y="790" width="340" height="60" as="geometry" />
        </mxCell>
        <mxCell id="4D9kTlraaMB5eFjH1Jv5-73" value="&lt;span style=&quot;color: rgb(84, 93, 126); font-family: &amp;quot;Google Sans&amp;quot;, Arial, sans-serif; font-size: 16px; letter-spacing: 0.1px; text-align: left; background-color: rgb(255, 255, 255);&quot;&gt;Maintenance&amp;nbsp;&amp;nbsp;&lt;/span&gt;&lt;font face=&quot;Google Sans, Arial, sans-serif&quot; color=&quot;#545d7e&quot;&gt;&lt;span style=&quot;font-size: 16px; letter-spacing: 0.1px;&quot;&gt;Region&amp;nbsp;&lt;/span&gt;&lt;/font&gt;" style="text;html=1;align=center;verticalAlign=middle;whiteSpace=wrap;rounded=0;fillColor=#e1d5e7;strokeColor=#9673a6;" vertex="1" parent="1">
          <mxGeometry x="530" y="10" width="180" height="30" as="geometry" />
        </mxCell>
        <mxCell id="4D9kTlraaMB5eFjH1Jv5-74" value="UI" style="rounded=0;whiteSpace=wrap;html=1;fillColor=#d5e8d4;strokeColor=#82b366;" vertex="1" parent="1">
          <mxGeometry x="87.5" y="90" width="105" height="20" as="geometry" />
        </mxCell>
        <mxCell id="4D9kTlraaMB5eFjH1Jv5-78" value="Class&amp;nbsp;" style="rounded=0;whiteSpace=wrap;html=1;fillColor=#f8cecc;strokeColor=#b85450;" vertex="1" parent="1">
          <mxGeometry x="87.5" y="30" width="105" height="20" as="geometry" />
        </mxCell>
        <mxCell id="4D9kTlraaMB5eFjH1Jv5-79" value="method&amp;nbsp;" style="rounded=0;whiteSpace=wrap;html=1;fillColor=#dae8fc;strokeColor=#6c8ebf;" vertex="1" parent="1">
          <mxGeometry x="87.5" y="60" width="105" height="20" as="geometry" />
        </mxCell>
        <mxCell id="4D9kTlraaMB5eFjH1Jv5-80" style="edgeStyle=orthogonalEdgeStyle;rounded=0;orthogonalLoop=1;jettySize=auto;html=1;exitX=0.5;exitY=0;exitDx=0;exitDy=0;entryX=0.373;entryY=-0.367;entryDx=0;entryDy=0;entryPerimeter=0;" edge="1" parent="1" source="4D9kTlraaMB5eFjH1Jv5-74" target="4D9kTlraaMB5eFjH1Jv5-74">
          <mxGeometry relative="1" as="geometry" />
        </mxCell>
        <mxCell id="4D9kTlraaMB5eFjH1Jv5-82" value="package&amp;nbsp;" style="rounded=0;whiteSpace=wrap;html=1;fillColor=#fff2cc;strokeColor=#d6b656;" vertex="1" parent="1">
          <mxGeometry x="90" y="120" width="100" height="30" as="geometry" />
        </mxCell>
        <mxCell id="4D9kTlraaMB5eFjH1Jv5-83" value="Task&amp;nbsp;" style="rounded=0;whiteSpace=wrap;html=1;fillColor=#fff2cc;strokeColor=#d6b656;" vertex="1" parent="1">
          <mxGeometry x="80" y="610" width="120" height="35" as="geometry" />
        </mxCell>
      </root>
    </mxGraphModel>
  </diagram>
</mxfile>
